<?xml version="1.0" standalone="no"?>
<!DOCTYPE svg PUBLIC "-//W3C//DTD SVG 20010904//EN"
 "http://www.w3.org/TR/2001/REC-SVG-20010904/DTD/svg10.dtd">
<svg version="1.0" xmlns="http://www.w3.org/2000/svg"
 width="630.000000pt" height="630.000000pt" viewBox="0 0 630.000000 630.000000"
 preserveAspectRatio="xMidYMid meet">
<metadata>
Created by potrace 1.11, written by Peter Selinger 2001-2013
</metadata>
<g transform="translate(0.000000,630.000000) scale(0.100000,-0.100000)"
fill="#000000" stroke="none">
<path d="M1500 5025 l0 -75 -150 0 -150 0 0 -75 0 -75 -75 0 -75 0 0 -75 0
-75 -75 0 -75 0 0 -75 0 -75 -150 0 -150 0 0 75 0 75 -150 0 -150 0 0 -75 0
-75 -75 0 -75 0 0 -75 0 -75 -75 0 -75 0 0 -225 0 -225 75 0 75 0 0 -675 0
-675 75 0 75 0 0 -75 0 -75 75 0 75 0 0 -75 0 -75 75 0 75 0 0 -150 0 -150
-75 0 -75 0 0 -225 0 -225 75 0 75 0 0 -75 0 -75 75 0 75 0 0 -75 0 -75 225 0
225 0 0 75 0 75 75 0 75 0 0 -75 0 -75 225 0 225 0 0 75 0 75 75 0 75 0 0 75
0 75 75 0 75 0 0 75 0 75 75 0 75 0 0 75 0 75 600 0 600 0 0 -75 0 -75 75 0
75 0 0 -75 0 -75 75 0 75 0 0 -75 0 -75 150 0 150 0 0 -75 0 -75 450 0 450 0
0 75 0 75 75 0 75 0 0 75 0 75 75 0 75 0 0 150 0 150 -75 0 -75 0 0 75 0 75
150 0 150 0 0 75 0 75 150 0 150 0 0 75 0 75 75 0 75 0 0 75 0 75 75 0 75 0 0
75 0 75 75 0 75 0 0 75 0 75 75 0 75 0 0 450 0 450 -75 0 -75 0 0 75 0 75 -75
0 -75 0 0 75 0 75 -150 0 -150 0 0 150 0 150 -75 0 -75 0 0 75 0 75 -75 0 -75
0 0 75 0 75 -75 0 -75 0 0 75 0 75 -75 0 -75 0 0 75 0 75 -150 0 -150 0 0 75
0 75 -150 0 -150 0 0 -75 0 -75 -225 0 -225 0 0 75 0 75 -225 0 -225 0 0 75 0
75 -1050 0 -1050 0 0 -75z"/>
</g>
</svg>
